<svg id="Capa_1" data-name="Capa 1" xmlns="http://www.w3.org/2000/svg" viewBox="0 0 300 54"><title>logotipo_simple_factura</title><path d="M66.72,30.39a17.51,17.51,0,0,1-2.49-1.16,7.46,7.46,0,0,1-1.88-1.52,6.19,6.19,0,0,1-1.21-2.1,9.12,9.12,0,0,1-.43-2.94A8.85,8.85,0,0,1,61.43,19a7.46,7.46,0,0,1,2-2.68,8.88,8.88,0,0,1,3.15-1.63,14.29,14.29,0,0,1,4.13-.55,20,20,0,0,1,3.9.36,29.67,29.67,0,0,1,3.82,1.07,14.48,14.48,0,0,1-1.31,4.66l-1.24-.49a9.62,9.62,0,0,0-1.35-.41,15.16,15.16,0,0,0-1.62-.27,17.84,17.84,0,0,0-2-.1,8.57,8.57,0,0,0-1.41.12,3.8,3.8,0,0,0-1.29.45,2.63,2.63,0,0,0-.94,1,3.35,3.35,0,0,0-.36,1.66,3,3,0,0,0,.28,1.37,2.79,2.79,0,0,0,.78.93,4.79,4.79,0,0,0,1.1.66q.61.27,1.23.51l2.45.94c1,.41,2,.83,2.82,1.27a7.43,7.43,0,0,1,2.14,1.61,6.65,6.65,0,0,1,1.37,2.33,10,10,0,0,1,.49,3.37,9.37,9.37,0,0,1-.75,3.8,8.25,8.25,0,0,1-2.19,2.94,10.21,10.21,0,0,1-3.53,1.92,15.3,15.3,0,0,1-4.85.7c-.9,0-1.7,0-2.41-.08a20.14,20.14,0,0,1-2-.27,18.16,18.16,0,0,1-1.9-.47c-.63-.19-1.28-.42-2-.69a16.92,16.92,0,0,1,.45-2.48c.22-.85.47-1.72.77-2.59a21.79,21.79,0,0,0,3.23,1,14.54,14.54,0,0,0,3.23.35,7.35,7.35,0,0,0,4-1,3.26,3.26,0,0,0,1.47-2.92,3.49,3.49,0,0,0-.35-1.64,3.57,3.57,0,0,0-.9-1.1,5.56,5.56,0,0,0-1.25-.76c-.46-.2-.94-.4-1.43-.59Z" transform="translate(0 -2.55)" style="fill:#2196f3"/><path d="M82.94,27.28H80.21A7.47,7.47,0,0,1,80,26.16,11.09,11.09,0,0,1,80,25a9.26,9.26,0,0,1,.25-2.17h8.41V44a17.71,17.71,0,0,1-2.86.24A17.51,17.51,0,0,1,82.94,44Zm-.85-8a15.18,15.18,0,0,1-.25-2.74,15.59,15.59,0,0,1,.25-2.74c.46-.08,1-.14,1.49-.18s1-.06,1.45-.06,1,0,1.51.06,1,.1,1.51.18a11.08,11.08,0,0,1,.16,1.37c0,.45.05.91.05,1.37s0,.88-.05,1.35a11.17,11.17,0,0,1-.16,1.39,13.09,13.09,0,0,1-1.49.16c-.53,0-1,0-1.49,0s-.93,0-1.47,0A13,13,0,0,1,82.09,19.32Z" transform="translate(0 -2.55)" style="fill:#2196f3"/><path d="M92.3,22.87a11.24,11.24,0,0,1,1.14-.18,12.44,12.44,0,0,1,1.27-.06,11.25,11.25,0,0,1,1.23.06c.35,0,.72.1,1.1.18a2.69,2.69,0,0,1,.23.59c.06.26.12.54.18.82s.1.57.14.84.08.5.1.69a7.4,7.4,0,0,1,.86-1.22,6.53,6.53,0,0,1,1.27-1.11,7,7,0,0,1,1.65-.79,6.38,6.38,0,0,1,2.07-.31q4.93,0,6.33,3.76a8.12,8.12,0,0,1,2.31-2.63A6.09,6.09,0,0,1,116,22.38q3.6,0,5.29,2c1.13,1.32,1.7,3.39,1.7,6.19V44a17.7,17.7,0,0,1-5.81,0V32.07a8.26,8.26,0,0,0-.55-3.4,2.19,2.19,0,0,0-2.22-1.18,4.88,4.88,0,0,0-1.37.2,3,3,0,0,0-1.23.76,4,4,0,0,0-.9,1.55,8.15,8.15,0,0,0-.34,2.6V44a17.7,17.7,0,0,1-5.81,0V32.07a8.26,8.26,0,0,0-.55-3.4,2.21,2.21,0,0,0-2.23-1.18,5.19,5.19,0,0,0-1.39.2,2.85,2.85,0,0,0-1.24.8,4.26,4.26,0,0,0-.88,1.66,9.52,9.52,0,0,0-.33,2.77V44a17.64,17.64,0,0,1-5.8,0Z" transform="translate(0 -2.55)" style="fill:#2196f3"/><path d="M126.05,22.83a9,9,0,0,1,1.13-.16c.36,0,.78,0,1.24,0a11.67,11.67,0,0,1,2.33.24,2.69,2.69,0,0,1,.23.59l.2.84c.07.3.12.59.16.88s.08.53.11.72a7.52,7.52,0,0,1,.9-1.29,5.86,5.86,0,0,1,1.28-1.13,7.37,7.37,0,0,1,1.7-.79,6.49,6.49,0,0,1,2.08-.31,8.23,8.23,0,0,1,3.29.66,7.15,7.15,0,0,1,2.68,2,9.43,9.43,0,0,1,1.78,3.33,15.82,15.82,0,0,1,.63,4.74,13.66,13.66,0,0,1-.78,4.76,9.64,9.64,0,0,1-2.24,3.57,10,10,0,0,1-3.6,2.27,13.68,13.68,0,0,1-4.82.8c-.47,0-.92,0-1.37-.06a10.26,10.26,0,0,1-1.12-.15v9.4c-.52.08-1,.14-1.5.17s-.94,0-1.41,0-.93,0-1.41,0-1-.09-1.49-.17Zm5.81,16.67a8.77,8.77,0,0,0,2.53.33,4.77,4.77,0,0,0,3.88-1.63,7.66,7.66,0,0,0,1.35-5,12.37,12.37,0,0,0-.21-2.35,5.14,5.14,0,0,0-.69-1.86,3.64,3.64,0,0,0-1.25-1.22,3.56,3.56,0,0,0-1.86-.45,3.66,3.66,0,0,0-1.73.38,3.25,3.25,0,0,0-1.17,1.07,4.72,4.72,0,0,0-.65,1.57,8.44,8.44,0,0,0-.2,1.92Z" transform="translate(0 -2.55)" style="fill:#2196f3"/><path d="M148.12,14.13a17,17,0,0,1,2.9-.25,16.76,16.76,0,0,1,2.86.25V35.58a12.25,12.25,0,0,0,.14,2,3.19,3.19,0,0,0,.45,1.21,1.62,1.62,0,0,0,.8.59,3.88,3.88,0,0,0,1.22.16,6.24,6.24,0,0,0,.72,0,4.81,4.81,0,0,0,.76-.12,13.06,13.06,0,0,1,.45,3.27v.59a2.3,2.3,0,0,1-.09.6,7.66,7.66,0,0,1-1.57.28c-.61.06-1.18.08-1.7.08a7.21,7.21,0,0,1-5-1.73q-1.91-1.74-1.9-5.66Z" transform="translate(0 -2.55)" style="fill:#2196f3"/><path d="M164.09,35.21a4.45,4.45,0,0,0,1.72,3.56,7,7,0,0,0,4.09,1.1,15.58,15.58,0,0,0,2.84-.27,15.24,15.24,0,0,0,2.75-.75,9.52,9.52,0,0,1,.78,2,10,10,0,0,1,.37,2.45,19.86,19.86,0,0,1-7.19,1.23,13.85,13.85,0,0,1-5-.82A8.85,8.85,0,0,1,161,41.4,9,9,0,0,1,159,38a15,15,0,0,1,0-8.74A10.06,10.06,0,0,1,161,25.65a9.21,9.21,0,0,1,3.19-2.39,10.36,10.36,0,0,1,4.43-.88,9.36,9.36,0,0,1,3.92.78,8.55,8.55,0,0,1,2.92,2.12,8.9,8.9,0,0,1,1.82,3.21,12.61,12.61,0,0,1,.61,4c0,.52,0,1-.06,1.54s-.09.9-.14,1.2Zm8.3-4A5.22,5.22,0,0,0,171.31,28a3.46,3.46,0,0,0-2.8-1.21,4,4,0,0,0-3.11,1.15,5.32,5.32,0,0,0-1.26,3.23Z" transform="translate(0 -2.55)" style="fill:#2196f3"/><path d="M180.4,14.62h16.67a12.89,12.89,0,0,1,.24,2.49,13.27,13.27,0,0,1-.24,2.57H186.36v6.91h8.5a13.22,13.22,0,0,1,.25,2.53,13,13,0,0,1-.25,2.58h-8.5V44a18.62,18.62,0,0,1-6,0Z" transform="translate(0 -2.55)" style="fill:#2196f3"/><path d="M208.8,30.1a3.35,3.35,0,0,0-.33-1.59,2.45,2.45,0,0,0-.9-1,3.72,3.72,0,0,0-1.41-.47A13.21,13.21,0,0,0,204.3,27a14.26,14.26,0,0,0-4.7.86,11,11,0,0,1-.85-2,7.38,7.38,0,0,1-.29-2.24,22.32,22.32,0,0,1,6.95-1.19,9.93,9.93,0,0,1,6.64,2q2.38,2.05,2.39,6.54V43.22a34,34,0,0,1-3.48.86,23.8,23.8,0,0,1-4.61.41,18.24,18.24,0,0,1-3.83-.37,8,8,0,0,1-3-1.23,5.74,5.74,0,0,1-1.92-2.2,7.34,7.34,0,0,1-.67-3.31,6.11,6.11,0,0,1,.83-3.29A6.41,6.41,0,0,1,200,32a9.59,9.59,0,0,1,3-1.14,15.81,15.81,0,0,1,3.27-.35c.79,0,1.66,0,2.62.12Zm0,4.21c-.33-.05-.68-.1-1.07-.14a9.85,9.85,0,0,0-1-.06,6.06,6.06,0,0,0-3.16.71,2.51,2.51,0,0,0-1.17,2.31,2.41,2.41,0,0,0,1.53,2.47,4.45,4.45,0,0,0,1.35.33c.48,0,.89.06,1.25.06a7.09,7.09,0,0,0,1.22-.1l1.07-.18Z" transform="translate(0 -2.55)" style="fill:#2196f3"/><path d="M231.72,39a8.5,8.5,0,0,1,.82,1.9,8.86,8.86,0,0,1,.32,2.56,12.78,12.78,0,0,1-3.06.83,22.06,22.06,0,0,1-3,.19,11.69,11.69,0,0,1-4.62-.84A8.9,8.9,0,0,1,219,41.34,9.82,9.82,0,0,1,217,37.85a14.08,14.08,0,0,1-.65-4.39,14.41,14.41,0,0,1,.63-4.34,10,10,0,0,1,1.92-3.51,8.91,8.91,0,0,1,3.21-2.37,10.84,10.84,0,0,1,4.45-.86c.6,0,1.15,0,1.66,0a11.27,11.27,0,0,1,1.45.17c.46.08.92.19,1.39.32s1,.32,1.55.53a10,10,0,0,1-.25,2.11,9.35,9.35,0,0,1-.77,2.23,13.23,13.23,0,0,0-2.15-.56,14.47,14.47,0,0,0-2.1-.14,4.53,4.53,0,0,0-3.82,1.66,7.51,7.51,0,0,0-1.29,4.72q0,3.3,1.39,4.82a4.89,4.89,0,0,0,3.76,1.51l1.12,0c.34,0,.68-.05,1-.1a8.26,8.26,0,0,0,1-.25C230.86,39.31,231.26,39.18,231.72,39Z" transform="translate(0 -2.55)" style="fill:#2196f3"/><path d="M235.48,27.28h-2.66l-.2-.81,7.64-9.77h.94v6.17h4.94a8.88,8.88,0,0,1,.17,1.11c0,.32,0,.66,0,1s0,.75,0,1.1a9.85,9.85,0,0,1-.17,1.18H241.2v8.3a8.58,8.58,0,0,0,.2,2,3.08,3.08,0,0,0,.6,1.23,2,2,0,0,0,1,.61,4.9,4.9,0,0,0,1.35.16,6.86,6.86,0,0,0,1.2-.1l1-.18A7.92,7.92,0,0,1,247,41a10.71,10.71,0,0,1,.12,1.49c0,.3,0,.56,0,.76a5.35,5.35,0,0,1-.06.59,16.55,16.55,0,0,1-3.88.45,8.35,8.35,0,0,1-5.68-1.73q-2-1.74-2-5.66Z" transform="translate(0 -2.55)" style="fill:#2196f3"/><path d="M248.15,22.87a17.64,17.64,0,0,1,5.8,0v11.2a12.42,12.42,0,0,0,.26,2.76,4,4,0,0,0,.82,1.71,3,3,0,0,0,1.37.9,6.18,6.18,0,0,0,1.92.27,9.52,9.52,0,0,0,2.53-.29V22.87a17.46,17.46,0,0,1,5.77,0V43.18a28.91,28.91,0,0,1-3.46.88,22.45,22.45,0,0,1-4.47.43,23.67,23.67,0,0,1-4-.33,7.86,7.86,0,0,1-3.37-1.39,7.3,7.3,0,0,1-2.31-3.1,14.39,14.39,0,0,1-.85-5.44Z" transform="translate(0 -2.55)" style="fill:#2196f3"/><path d="M269.84,22.87q.62-.12,1.17-.18a11.2,11.2,0,0,1,1.2-.06,8.11,8.11,0,0,1,1.21.08c.39.05.78.12,1.16.2a2.21,2.21,0,0,1,.23.6c.07.25.13.53.18.81s.1.57.15.86.07.53.1.72a10.49,10.49,0,0,1,2.2-2.27,5.24,5.24,0,0,1,3.27-1c.28,0,.59,0,.94,0a4,4,0,0,1,.78.12c.05.27.09.59.12.94s0,.72,0,1.1,0,1-.06,1.52a10.71,10.71,0,0,1-.22,1.55,5.2,5.2,0,0,0-1-.08h-.68a9,9,0,0,0-1.55.14,3.55,3.55,0,0,0-1.64.76,4.48,4.48,0,0,0-1.28,1.83,9.27,9.27,0,0,0-.51,3.44V44a14.55,14.55,0,0,1-1.48.16c-.48,0-1,0-1.42,0s-.94,0-1.41,0-1-.08-1.5-.16Z" transform="translate(0 -2.55)" style="fill:#2196f3"/><path d="M294.36,30.1a3.35,3.35,0,0,0-.33-1.59,2.36,2.36,0,0,0-.89-1,3.84,3.84,0,0,0-1.41-.47,13.21,13.21,0,0,0-1.86-.12,14.26,14.26,0,0,0-4.7.86,11.12,11.12,0,0,1-.86-2,7.71,7.71,0,0,1-.29-2.24,22.32,22.32,0,0,1,7-1.19,9.91,9.91,0,0,1,6.64,2Q300,26.48,300,31V43.22a33.15,33.15,0,0,1-3.47.86,23.9,23.9,0,0,1-4.62.41,18.14,18.14,0,0,1-3.82-.37,7.94,7.94,0,0,1-3-1.23,5.66,5.66,0,0,1-1.92-2.2,7.34,7.34,0,0,1-.68-3.31,6,6,0,0,1,.84-3.29A6.47,6.47,0,0,1,285.51,32a9.65,9.65,0,0,1,3-1.14,15.81,15.81,0,0,1,3.27-.35q1.19,0,2.61.12Zm0,4.21c-.33-.05-.68-.1-1.06-.14a9.85,9.85,0,0,0-1-.06,6.1,6.1,0,0,0-3.17.71A2.5,2.5,0,0,0,288,37.13a2.6,2.6,0,0,0,.45,1.64,2.56,2.56,0,0,0,1.08.83,4.31,4.31,0,0,0,1.35.33c.47,0,.89.06,1.24.06a7.29,7.29,0,0,0,1.23-.1l1.06-.18Z" transform="translate(0 -2.55)" style="fill:#2196f3"/><rect width="54" height="54" style="fill:#2196f3"/><path d="M14.33,30.56A16.22,16.22,0,0,1,12,29.48a7,7,0,0,1-1.75-1.41,5.81,5.81,0,0,1-1.12-2,8.21,8.21,0,0,1-.4-2.74A8.35,8.35,0,0,1,9.4,20a6.81,6.81,0,0,1,1.89-2.48,8.21,8.21,0,0,1,2.92-1.53,13.42,13.42,0,0,1,3.84-.51,19,19,0,0,1,3.63.34,27.76,27.76,0,0,1,3.55,1A13.37,13.37,0,0,1,24,21.09l-1.16-.45a8.86,8.86,0,0,0-1.26-.38A13,13,0,0,0,20.1,20a17.81,17.81,0,0,0-1.9-.09,7.39,7.39,0,0,0-1.31.11,3.88,3.88,0,0,0-1.2.42,2.4,2.4,0,0,0-.87.89,3,3,0,0,0-.34,1.54,2.81,2.81,0,0,0,.26,1.27,2.59,2.59,0,0,0,.73.88,4.67,4.67,0,0,0,1,.61l1.14.47,2.28.88c1,.38,1.84.77,2.63,1.17a7.23,7.23,0,0,1,2,1.5,6.22,6.22,0,0,1,1.27,2.17A9.25,9.25,0,0,1,26.26,35a8.62,8.62,0,0,1-.7,3.53,7.55,7.55,0,0,1-2,2.74A9.54,9.54,0,0,1,20.24,43a14.43,14.43,0,0,1-4.51.65c-.83,0-1.58,0-2.24-.08a17.51,17.51,0,0,1-1.88-.24,17.6,17.6,0,0,1-1.77-.44c-.58-.18-1.19-.39-1.82-.65A14.57,14.57,0,0,1,8.44,40c.2-.79.44-1.6.72-2.41a19.22,19.22,0,0,0,3,1,13.14,13.14,0,0,0,3,.32A6.83,6.83,0,0,0,18.93,38a3,3,0,0,0,1.36-2.72,3,3,0,0,0-1.16-2.54A4.94,4.94,0,0,0,18,32l-1.33-.55Z" transform="translate(0 -2.55)" style="fill:#fff"/><path d="M30.25,15.89H45.76A11.93,11.93,0,0,1,46,18.21a12.34,12.34,0,0,1-.23,2.39h-10V27h7.9a12.16,12.16,0,0,1,.23,2.36,11.88,11.88,0,0,1-.23,2.39H35.8V43.21a16.85,16.85,0,0,1-5.55,0Z" transform="translate(0 -2.55)" style="fill:#fff"/></svg>